<?xml version="1.0" encoding="UTF-8"?> <svg xmlns="http://www.w3.org/2000/svg" xmlns:xlink="http://www.w3.org/1999/xlink" width="1600px" height="1200px" viewBox="0 0 1600 1200"><!-- Generator: Sketch 57.1 (83088) - https://sketch.com --><title>Welcome screen for startup product</title><desc>Created with Sketch.</desc><g id="Welcome-screen-for-startup-product" stroke="none" stroke-width="1" fill="none" fill-rule="evenodd"><g id="bg" transform="translate(98.000000, 789.000000)" opacity="0.5"><path d="M1260.84397,86.8391884 C1172.18628,63.9299525 1128.12104,95.7245986 1027.73884,139.399469 C927.356652,183.074339 803.398313,197.079356 661.889806,115.56989 C520.381299,34.0604236 361.825342,63.9299525 297.350915,154.885359 C254.367964,215.522297 155.250992,250.893844 0,261 L1402,261 C1367.00111,160.165616 1319.94909,102.112012 1260.84397,86.8391884 Z" id="Shape" fill="#CCEEFF"></path><path d="M2,261 C49.9801107,141.650595 143.855421,101.867461 283.625929,141.650595 C493.281693,201.325298 615.844566,156.569271 725.242071,67.0572176 C834.639575,-22.4548358 963.194473,-34.3897762 1114.51913,105.845774 C1215.40224,199.336141 1311.2292,251.054216 1402,261 L2,261 Z" id="Shape" fill="#E5F6FF"></path></g><g id="Man-Standing-1" transform="translate(1100.500000, 741.500000) scale(-1, 1) translate(-1100.500000, -741.500000) translate(943.000000, 433.000000)"><g id="Head-Front/-Women/-3" transform="translate(77.000000, 0.734458)"><path d="M4.30844412,62.2048786 C3.12517044,58.7706035 4.1279975,55.1123524 6.57840084,52.7433549 C5.93591936,48.5135025 5.35312894,44.6430785 4.83002958,41.1320831 C4.83002958,26.5530771 16.9183413,14.7344575 31.8300296,14.7344575 C46.7417178,14.7344575 58.8300296,26.5530771 58.8300296,41.1320831 L58.8300296,55.0121975 C58.8300296,66.6783881 51.8858761,79.5375036 47.0180238,84.471721 C48.1283065,87.894779 49.523518,90.8266057 51.2036583,93.2672012 C51.5708725,93.8006216 52.7327982,95.3668571 53.0308596,95.9085422 C82.3284097,97.9751445 64.7323468,117.375333 54.7393111,122.872357 C48.6254933,126.235479 42.431423,128.845376 35.7687407,129.026408 C21.0501191,129.426329 7.46316181,120.623032 -4.99213102,102.61652 C0.944965991,99.8470705 7.33033848,97.7441017 14.1639865,96.307613 L17.4903811,72.1858944 C15.8859714,70.9096129 14.392283,69.6090505 13.0768299,68.3119013 C9.24128172,68.3980551 5.62432796,66.024034 4.30844412,62.2048786 Z" id="Shape" fill="#FFB5B9" fill-rule="evenodd"></path><path d="M45.4376491,84.7271586 C42.6689912,87.0952524 39.1624647,85.8316385 27.4226384,77.1945096 C26.9777783,76.8672208 26.351828,76.9625311 26.0245392,77.4073912 C25.6972504,77.8522513 25.7925607,78.4782016 26.2374208,78.8054904 C38.7272807,87.9944278 42.9257806,89.5074017 46.7376357,86.2470385 C47.1573389,85.8880571 47.2065637,85.2568085 46.8475823,84.8371052 C46.4886009,84.417402 45.8573523,84.3681772 45.4376491,84.7271586 Z" id="Shape" fill="#F97A80" fill-rule="nonzero"></path><path d="M43.4887667,68.8820852 C43.1226845,68.468561 43.1611438,67.8365652 43.574668,67.470483 C43.9881922,67.1044007 44.6201881,67.1428601 44.9862703,67.5563842 C46.0385902,68.7450782 47.1383464,69.0818619 48.4601281,68.6548925 C48.9856739,68.4851278 49.5493345,68.7735453 49.7190993,69.2990911 C49.888864,69.8246369 49.6004465,70.3882974 49.0749007,70.5580622 C46.9731543,71.2369801 45.0529133,70.6489354 43.4887667,68.8820852 Z" id="Shape" fill="#F97A80" fill-rule="nonzero"></path><path d="M49.8300296,50.7344575 C49.8300296,50.1821728 49.3823143,49.7344575 48.8300296,49.7344575 C48.2777448,49.7344575 47.8300296,50.1821728 47.8300296,50.7344575 L47.8300296,58.5359979 C47.8300296,59.0376593 48.2017208,59.4616826 48.6990611,59.5273844 C50.5562776,59.7727346 51.3128618,60.1654675 51.3128618,60.3438907 C51.3128618,60.743217 50.3420805,61.6882808 48.324104,62.8718804 C47.8477158,63.1512954 47.6880375,63.7639949 47.9674524,64.2403831 C48.2468674,64.7167713 48.859567,64.8764496 49.3359552,64.5970347 C51.9617549,63.0569298 53.3128618,61.7416157 53.3128618,60.3438907 C53.3128618,58.9020793 52.0708623,58.099872 49.8300296,57.6816318 L49.8300296,50.7344575 Z" id="Shape" fill="#F97A80" fill-rule="nonzero"></path><path d="M58.8295105,43.2470975 C58.8328302,42.4137121 58.8300296,41.5892317 58.8300296,40.7344575 C49.7990996,41.5797204 38.8300296,41.5797204 34.3300296,27.1585972 C34.3300296,46.2243209 23.5768389,46.2243209 20.9549257,50.0293123 C18.2115269,54.0106069 19.3627252,56.0528947 18.1502294,56.3003591 C15.7789307,56.7843295 13.8724995,48.9354144 11.0301072,49.5316389 C8.18771485,50.1278634 2.01911098,55.6128707 4.61076104,62.2793103 C7.2024111,68.9457499 16.0663918,67.1474904 17.5466817,71.3696959 C17.8180609,72.143746 17.5466817,73.3431136 17.3068594,74.8396509 C15.4572566,87.8748929 14.4605176,94.9291273 14.3166424,96.0023542 C14.1008298,97.6121946 -1.9340648,99.553831 -3.87461685,103.389713 C-5.10669068,105.825149 10.5650833,117.375322 9.83610173,119.794591 C4.79833414,136.51342 -2.38568208,146.935408 -11.7159469,151.060557 C-34.8073491,161.269857 -70.1473648,138.048549 -66.1942371,106.547186 C-62.2411095,75.045823 -4.03372326,82.3660973 -4.15057225,62.5407555 C-4.2783991,40.8528398 6.28940598,17.6724518 18.1702151,17.8949336 C30.0316334,2.2802555 60.0045485,13.1019729 66.2951256,21.8397145 C72.5857027,30.5774561 56.829445,44.2025887 63.4962487,68.7027499 C70.1630524,93.2029112 58.9434695,95.3109219 53.0308596,95.9085422 C51.0313959,96.1106391 47.0377923,84.9479046 47.0180238,84.471721 C47.0222067,83.9093312 55.1255237,74.4472968 56.8300296,63.7344575 C58.4276283,53.6935314 58.7528338,48.8224005 58.8163409,44.6800192 C57.8393151,44.8091988 56.2571422,44.7096928 54.5227972,44.3684842 C51.7666829,43.8262565 49.6699635,42.8789731 49.8396432,42.2526674 C50.009323,41.6263618 52.3811477,41.5582031 55.137262,42.1004308 C56.6593399,42.3998788 57.9803119,42.8228629 58.8295105,43.2470975 Z M34.76472,43.916399 C32.2912392,44.8073548 30.0914692,45.000444 29.8513963,44.3476757 C29.6113234,43.6949075 31.4218582,42.4434719 33.8953391,41.552516 C36.36882,40.6615602 38.56859,40.4684711 38.8086629,41.1212393 C39.0487358,41.7740076 37.2382009,43.0254432 34.76472,43.916399 Z M39.3300296,52.7344575 C38.5016025,52.7344575 37.8300296,52.0628847 37.8300296,51.2344575 C37.8300296,50.4060304 38.5016025,49.7344575 39.3300296,49.7344575 C40.1584567,49.7344575 40.8300296,50.4060304 40.8300296,51.2344575 C40.8300296,52.0628847 40.1584567,52.7344575 39.3300296,52.7344575 Z M55.3300296,52.7344575 C54.5016025,52.7344575 53.8300296,52.0628847 53.8300296,51.2344575 C53.8300296,50.4060304 54.5016025,49.7344575 55.3300296,49.7344575 C56.1584567,49.7344575 56.8300296,50.4060304 56.8300296,51.2344575 C56.8300296,52.0628847 56.1584567,52.7344575 55.3300296,52.7344575 Z" id="Shape" fill="#0E143F" fill-rule="evenodd"></path><path d="M15.8451223,58.5469386 C12.5545319,55.3702861 9.62287058,55.7718085 7.98724957,59.7397615 C7.77677384,60.2503674 8.02007744,60.8349196 8.53068337,61.0453953 C9.04128929,61.255871 9.62584147,61.0125674 9.8363172,60.5019615 C10.904546,57.9104799 12.1320831,57.7423555 14.4560395,59.9858441 C14.8533823,60.3694287 15.486449,60.3582755 15.8700336,59.9609328 C16.2536183,59.56359 16.2424651,58.9305232 15.8451223,58.5469386 Z" id="Shape" fill="#F97A80" fill-rule="nonzero"></path></g><g id="Front-Bottom/-Standing/-Long-Pants" transform="translate(42.000000, 255.504086)"><path d="M9.39071247,303.400708 L30.0048833,307.407696 L17.4778867,349.744017 L0.995116676,346.592304 L9.39071247,303.400708 Z M136.39714,308.443613 L157.240609,305.884357 L158.40937,350.019645 L141.759391,352.115643 L136.39714,308.443613 Z" id="Shape" fill="#FFB5B9" fill-rule="evenodd"></path><path d="M82.3731923,101.526684 L24.2834939,339.364037 L1.99761421,334.453518 C6.83748819,242.233033 15.9327814,181.7933 29.2834939,173.862394 C22.0330461,121.988285 22.8889755,65.7776111 31.8512822,5.23037118 L50.2851821,6.15833625 L126.602303,-2.84217094e-14 L160,171.543873 L159.303534,334.513328 L138.927144,339.364037 C124.587204,250.625447 118.075094,196.901259 129.390813,186.191472 C115.080715,163.175085 99.4081743,134.953489 82.3731923,101.526684 Z" id="Shape" fill="#1A6EE3" fill-rule="evenodd"></path><path d="M0.883527163,343.363424 C2.65058149,341.622528 10.9257985,346.701036 14.3723408,346.710867 C16.6700357,346.717422 18.1666205,345.618702 18.8620953,343.414709 C33.1638499,349.264615 41.6183036,352.970853 44.2254563,354.533421 C46.8326091,356.09599 47.6023663,357.918183 46.534728,360 L0.883527163,360 C-0.294509054,350.069546 -0.294509054,344.524021 0.883527163,343.363424 Z M139.883527,343.593795 C141.650581,341.852899 149.925798,346.931407 153.372341,346.941239 C155.670036,346.947793 157.166621,345.849073 157.862095,343.64508 C172.16385,349.494986 180.618304,353.201224 183.225456,354.763793 C185.832609,356.326361 186.602366,358.148554 185.534728,360.230371 L139.883527,360.230371 C138.705491,350.299918 138.705491,344.754392 139.883527,343.593795 Z" id="Shape" fill="#021768" fill-rule="evenodd"></path><path d="M122.360826,24.5528153 C122.686211,24.1065615 122.588229,23.481024 122.141975,23.1556381 C121.695721,22.8302521 121.070183,22.9282349 120.744798,23.3744887 L88.1096849,68.1322435 C88.0478742,68.2170144 87.9997884,68.3109839 87.9671917,68.410704 L76.4138166,103.754979 C76.2422201,104.279929 76.5286703,104.844592 77.0536209,105.016189 C77.5785714,105.187785 78.1432344,104.901335 78.3148308,104.376384 L89.8190064,69.1826217 L122.360826,24.5528153 Z" id="Shape" fill="#0E143F" fill-rule="nonzero"></path></g><g id="Front-body/-Woman/-Pose5/-Long-sleeve-shirt-Tie" transform="translate(0.000000, 82.331875)"><path d="M250.283109,99.0803765 C256.743669,98.0457298 261.787155,97.1729318 265.413569,96.4619824 C272.136102,88.875392 275.369181,86.1080932 277.018549,85.500285 C278.667918,84.8924768 278.1686,88.1138976 275.520597,95.1645476 C277.704024,94.6893952 280.956394,99.3964796 284.908071,98.4038181 C290.654531,96.960307 298.252305,90.1682126 300.431429,92.1356989 C301.993704,93.5462454 297.655043,97.8084166 287.415446,104.922212 C277.591926,108.484757 271.074708,109.602961 267.863793,108.276822 L255.382385,112.878281 L250.283109,99.0803765 Z M-46.2302379,67.5692436 L-30.3156317,79.072543 L-36.8280052,89.7932331 L-50.7471336,78.7483056 C-55.8178205,79.7336324 -60.4536736,79.6175551 -64.6546927,78.4000738 C-70.9562214,76.5738518 -74.1952317,75.9329653 -74.1660382,74.5382949 C-74.1368447,73.1436244 -64.4680743,74.2309997 -65.7113421,73.7270164 C-69.1096204,72.349457 -77.187228,70.0819201 -76.9966866,68.2060167 C-76.8696591,66.9554144 -72.6769466,67.1867447 -64.4185492,68.9000077 C-73.2938247,65.2228086 -77.4265165,62.7773449 -76.8166247,61.5636167 C-75.901787,59.7430244 -64.6067332,63.6980113 -63.2115797,63.613402 C-64.1683258,62.1465266 -73.2093098,57.7284488 -71.4815704,55.8138903 C-70.614885,54.8534909 -64.4297858,56.9363469 -52.9262728,62.0624583 C-54.2535672,54.5541778 -54.1645655,51.2683691 -52.6592676,52.2050323 C-51.1539698,53.1416954 -49.0109599,58.2630992 -46.2302379,67.5692436 Z" id="Shape" fill="#FFB5B9" fill-rule="evenodd"></path><path d="M54.2423335,36.6666377 C55.5006354,33.7113842 57.8186904,31.0383374 61.7534919,28.5098975 C64.9626795,26.4477253 73.9375717,21.3648059 88.6781683,13.2611392 C90.0005164,12.5495266 90.7901653,11.0778104 91.047115,8.84599075 C108.325514,20.4001791 117.792887,25.7288084 119.449233,24.8318787 C121.933752,23.4864841 123.25181,14.4866353 124.619699,7.24137931 C127.570524,12.4741228 129.348433,15.1743269 129.953426,15.3419914 C136.806768,17.2412893 142.140575,19.2931131 145.954845,21.4974628 C146.907941,21.7843 147.877597,22.1587806 148.861762,22.6270415 C156.85213,26.4288205 183.245292,78.8356095 187.816022,103.228807 C205.617652,99.1531044 217.422062,104.542929 257.17897,96.5253366 C261.953826,95.5624135 264.020307,100.264354 263.378413,110.631157 C207.15129,132.691475 174.828752,140.569125 166.410799,134.264107 C165.991992,133.950422 165.537496,133.549551 165.050304,133.067037 C171.097484,155.208955 179.295625,170.735175 174.293601,182.729521 C172.299342,187.51155 145.147888,199.150071 139.815023,188.727545 C132.011127,203.283174 75.4878941,205.648476 68.0204199,190.101072 C60.5529456,174.553667 84.6765237,145.916603 81.3851276,129.987788 C79.8378664,122.499769 74.7809243,113.102635 69.5246575,102.619364 C57.6383736,120.335412 45.5011471,135.125434 39.852815,136.858264 C26.533811,140.944349 -39.8714641,89.0329383 -44.5569766,85.6069722 C-49.2424892,82.1810062 -41.2898583,70.1681827 -40.1524281,70.1681827 C-5.11842333,89.0329383 15.2352311,89.0329383 29.7242658,101.653015 C32.1472319,86.6871344 40.3199212,65.0250087 54.2423335,36.6666377 Z" id="Shape" fill="#DB2721" fill-rule="evenodd"></path><path d="M150.185035,43.013287 C154.922161,49.9048131 159.500139,57.657204 163.918262,66.2704527 C164.763322,67.9179194 165.395984,69.5623656 165.831892,71.2125622 C167.462345,77.3848932 166.584122,82.2859075 163.384749,90.9340172 C162.040048,94.568829 161.719224,95.4886922 161.314131,97.0558593 C157.418716,112.125893 161.620988,134.324562 173.853025,163.718145 C174.071405,164.242913 174.659666,164.485185 175.166941,164.259274 C175.674217,164.033364 175.908413,163.424818 175.690032,162.900051 C163.619996,133.895755 159.494708,112.103753 163.246247,97.5903243 C163.625527,96.1230202 163.938294,95.2262575 165.252631,91.67352 C168.593666,82.6424911 169.535741,77.3851455 167.761156,70.6671844 C167.28609,68.8687486 166.598709,67.0820748 165.684945,65.3006666 C161.22743,56.6106228 156.604339,48.781836 151.814965,41.8142992 C151.49491,41.3486863 150.870582,41.239635 150.420489,41.5707263 C149.970397,41.9018176 149.86498,42.547674 150.185035,43.013287 Z" id="Shape" fill="#0E143F" fill-rule="nonzero"></path><path d="M140.552434,185.053268 C143.357502,164.671671 143.720262,140.094573 142.242507,114.037947 C141.225273,96.1014918 139.210372,77.5680393 138.057749,72.0867536 C135.316604,59.0512744 130.246227,43.8861705 122.848275,26.5851106 C122.624856,26.0626174 122.034294,25.826415 121.529217,26.0575377 C121.02414,26.2886605 120.795811,26.8995869 121.01923,27.4220801 C128.366364,44.6042942 133.393886,59.6412245 136.103454,72.5265398 C137.229721,77.8824851 139.234264,96.3206703 140.24594,114.159123 C141.716543,140.089641 141.355678,164.538382 138.572401,184.761644 C138.494556,185.327269 138.874695,185.851081 139.421466,185.931611 C139.968237,186.012141 140.474589,185.618894 140.552434,185.053268 Z" id="Shape" fill="#0E143F" fill-rule="nonzero"></path><path d="M122.026694,28.0336005 C122.576588,27.9805004 122.980754,27.4763054 122.929424,26.9074493 C122.878094,26.3385932 122.390705,25.9204902 121.840811,25.9735903 L111.612897,26.9612391 C111.314331,26.9900699 111.044029,27.1559821 110.876487,27.4132508 L103.8753,38.1638819 L90.7760423,13.0986311 L91.9183752,9.85872674 C92.1076205,9.32198601 91.8404235,8.72816794 91.3215742,8.53239696 C90.8027248,8.33662599 90.2287007,8.61303658 90.0394554,9.14977731 L88.7429967,12.8268158 C88.6449758,13.1048245 88.6667388,13.4129489 88.802782,13.6732657 L102.901767,40.6514805 C103.259193,41.3354113 104.190873,41.3823044 104.610793,40.7374988 L112.270488,28.9756993 L122.026694,28.0336005 Z" id="Shape" fill="#0E143F" fill-rule="nonzero"></path><path d="M127.55733,22.406268 C127.236589,22.2490619 126.859331,22.2795054 126.566035,22.4862622 L121.370626,26.1487289 C120.914234,26.4704593 120.796375,27.11401 121.107381,27.5861397 C121.418387,28.0582694 122.040486,28.1801922 122.496879,27.8584618 L127.218793,24.5297814 L136.860979,29.2557467 C137.760064,29.6964191 138.661991,28.6562848 138.14119,27.7793617 L126.080005,7.47078543 C125.790899,6.98398912 125.175059,6.83181143 124.70449,7.13088706 C124.23392,7.42996269 124.086815,8.06703778 124.375921,8.55383409 L134.67458,25.8946758 L127.55733,22.406268 Z" id="Shape" fill="#0E143F" fill-rule="nonzero"></path><path d="M121.059201,75.8224686 L123.992667,92.4240439 L117.340074,104.992629 L105.88071,100.278876 L103.862969,92.5203806 C103.719486,91.9686694 103.170828,91.6417457 102.637507,91.7901762 C102.104186,91.9386066 101.78816,92.5061836 101.931643,93.0578948 L104.079644,101.31726 C104.161621,101.632472 104.382603,101.889168 104.675813,102.009779 L117.422931,107.253242 C117.892222,107.446283 118.426993,107.247046 118.669545,106.788799 L125.917272,93.095842 C126.027484,92.8876203 126.065116,92.6465207 126.023853,92.4129973 L122.822747,74.2967464 C122.714531,73.6843139 122.111702,73.3087895 121.537827,73.4963225 L99.6987809,80.6329618 C99.1982535,80.7965259 98.905165,81.3325953 99.0275695,81.8606318 L100.310876,87.3966463 C100.439665,87.9522241 100.979441,88.2946048 101.516499,88.161375 C102.053558,88.0281452 102.384526,87.4697563 102.255737,86.9141785 L101.189712,82.3154892 L121.059201,75.8224686 Z" id="Shape" fill="#0E143F" fill-rule="nonzero"></path><path d="M72.856757,95.7039404 C73.6200202,94.6024962 75.2275411,95.7507943 74.5022635,96.8793726 C69.7370095,104.294413 64.8328887,111.373671 60.224759,117.482479 C59.4210078,118.547979 57.8624658,117.341789 58.6236498,116.243346 L72.856757,95.7039404 Z M74.4822415,96.9093681 L60.2491342,117.448773 L58.6480249,116.20964 C63.2237438,110.143798 68.0985338,103.10688 72.836735,95.7339359 L74.4822415,96.9093681 Z" id="Shape" fill="#0E143F" fill-rule="nonzero"></path><path d="M-38.9995551,87.9835383 L-33.6021503,78.1386539 C-33.3296914,77.6416879 -33.4982613,77.0103295 -33.9786617,76.7284755 C-34.4590621,76.4466214 -35.0693752,76.6210041 -35.3418342,77.1179701 L-40.739239,86.9628545 C-41.0116979,87.4598205 -40.843128,88.0911789 -40.3627276,88.3730329 C-39.8823271,88.654887 -39.2720141,88.4805043 -38.9995551,87.9835383 Z" id="Shape" fill="#0E143F" fill-rule="nonzero"></path><path d="M249.319778,103.271849 L251.980982,113.155848 C252.129168,113.706227 252.680595,114.028127 253.212628,113.874831 C253.744661,113.721535 254.055831,113.151093 253.907645,112.600714 L251.24644,102.716716 C251.098254,102.166336 250.546827,101.844437 250.014794,101.997733 C249.482761,102.151029 249.171592,102.72147 249.319778,103.271849 Z" id="Shape" fill="#0E143F" fill-rule="nonzero"></path><path d="M112.280332,27.7205267 L121.933752,26.6407441 L127.013972,23.7931034 L128.46331,27.7205267 C140.42725,29.4188069 147.384781,31.9491997 149.335904,35.3117052 C152.262588,40.3554635 148.4637,47.4284681 145.529234,45.6642671 C143.572924,44.4881331 138.369833,40.1713213 129.919963,32.7138317 C140.982791,45.5437923 147.654468,53.430039 149.934992,56.3725719 C153.355779,60.7863712 147.548961,65.8825284 146.323228,64.7387372 C145.506073,63.9762097 138.866485,53.8942318 126.404464,34.4928036 C129.167725,57.558853 129.713845,68.8133023 128.042822,68.2561516 C126.149595,67.6249138 122.026298,65.5747762 120.338261,63.1908109 C119.737048,62.3417348 120.873847,52.6475087 123.748658,34.1081326 C121.32926,47.149876 119.38109,54.3879717 117.904148,55.8224198 C115.688735,57.9740919 103.229543,51.8640972 104.037605,47.025131 C104.576312,43.7991535 109.418979,38.2385558 118.565606,30.3433381 L112.280332,27.7205267 Z M120,34.137931 C113.164479,42.3343214 110.222654,46.9371292 111.174524,47.9463543 C112.602329,49.460192 114.453028,51.3003256 115.5,50.4926996 C116.197981,49.9542822 117.697981,44.5026927 120,34.137931 Z M131.286414,31.2573595 C140.260024,39.2998823 145.37304,42.9921654 146.625461,42.3342089 C148.504094,41.347274 149.065457,39.5538175 144.307184,36.5540753 C141.135001,34.5542471 136.794745,32.7886752 131.286414,31.2573595 Z" id="Shape" fill="#021768" fill-rule="evenodd"></path></g></g><g id="Background" transform="translate(428.000000, 177.000000)"><g id="Background-Element-5" transform="translate(0.000000, 153.000000)" fill="#DB2721"><path d="M67.0232424,35.9923093 L37.054968,66 L5.97675756,34.8809133 C-1.99225252,26.9014219 -1.99225252,13.9641101 5.97675756,5.98461859 C13.9457676,-1.99487286 26.8660858,-1.99487286 34.8350959,5.98461859 L37.054968,8.2074105 L38.1649041,7.09601455 C46.1339142,-0.883476913 59.0542324,-0.883476913 67.0232424,7.09601455 C74.9922525,15.075506 74.9922525,28.0128178 67.0232424,35.9923093 Z" id="Shape"></path></g><g id="Background-ELement-4" transform="translate(145.000000, 52.000000)" fill="#60C9FF"><path d="M8.42569816,14.1270797 L14.1270797,8.42569816 C14.5676291,7.98514873 15.251475,7.90096345 15.7857197,8.22151024 L20.8193943,11.241715 C24.0937861,9.13590513 27.7718891,7.60342216 31.7118895,6.78607992 L33.1512962,1.02845292 C33.3024034,0.424024095 33.8454835,0 34.4685145,0 L42.5314855,0 C43.1545165,0 43.6975966,0.424024095 43.8487038,1.02845292 L45.2887874,6.7887874 L45.2887874,6.85855211 C49.1772876,7.70907601 52.8046967,9.25756676 56.0330976,11.3661071 L56.1228159,11.2763889 L61.2142803,8.22151024 C61.748525,7.90096345 62.4323709,7.98514873 62.8729203,8.42569816 L68.5743018,14.1270797 C69.0148513,14.5676291 69.0990365,15.251475 68.7784898,15.7857197 L65.7236111,20.8771841 L65.603335,20.9974602 C67.6799878,24.2218319 69.2004453,27.8382819 70.0291099,31.7112126 L70.2112126,31.7112126 L75.9715471,33.1512962 C76.5759759,33.3024034 77,33.8454835 77,34.4685145 L77,42.5314855 C77,43.1545165 76.5759759,43.6975966 75.9715471,43.8487038 L70.2112126,45.2887874 L70.0403476,45.2887874 C69.2169597,49.168775 67.6994716,52.7922718 65.6239782,56.023183 L65.7236111,56.1228159 L68.7784898,61.2142803 C69.0990365,61.748525 69.0148513,62.4323709 68.5743018,62.8729203 L62.8729203,68.5743018 C62.4323709,69.0148513 61.748525,69.0990365 61.2142803,68.7784898 L56.1228159,65.7236111 L56.064983,65.6657782 C52.8285877,67.7849628 49.1900944,69.3408598 45.2887874,70.1941849 L45.2887874,70.2112126 L43.8487038,75.9715471 C43.6975966,76.5759759 43.1545165,77 42.5314855,77 L34.4685145,77 C33.8454835,77 33.3024034,76.5759759 33.1512962,75.9715471 L31.725794,70.2695384 C27.7635302,69.449398 24.0658804,67.9060694 20.7770085,65.7837165 L15.7857197,68.7784898 C15.251475,69.0990365 14.5676291,69.0148513 14.1270797,68.5743018 L8.42569816,62.8729203 C7.98514873,62.4323709 7.90096345,61.748525 8.22151024,61.2142803 L11.1922093,56.2631153 C9.02883465,52.9597761 7.45232233,49.2374578 6.61080315,45.2442913 L1.02845292,43.8487038 C0.424024095,43.6975966 0,43.1545165 0,42.5314855 L0,34.4685145 C0,33.8454835 0.424024095,33.3024034 1.02845292,33.1512962 L6.62258926,31.7527621 C7.46915374,27.7705213 9.04693317,24.058675 11.2087306,20.7644202 L8.22151024,15.7857197 C7.90096345,15.251475 7.98514873,14.5676291 8.42569816,14.1270797 Z M38.6697197,55.5116626 C48.0504386,55.5116626 55.6550138,47.9070874 55.6550138,38.5263685 C55.6550138,29.1456496 48.0504386,21.5410744 38.6697197,21.5410744 C29.2890008,21.5410744 21.6844256,29.1456496 21.6844256,38.5263685 C21.6844256,47.9070874 29.2890008,55.5116626 38.6697197,55.5116626 Z" id="Shape"></path></g><g id="Background-Element-2" transform="translate(673.000000, 136.000000)"><circle id="Shape" fill="#FFAA0A" cx="40" cy="40" r="40"></circle><path d="M39.1294895,51.9683391 L30.160427,56.6959556 C29.2459672,57.1779697 28.1149182,56.8254694 27.6341582,55.908624 C27.4427171,55.5435313 27.3766555,55.1253468 27.4462006,54.7188101 L29.1591391,44.7055577 C29.2632185,44.0971451 29.0620324,43.4763424 28.6211449,43.0454622 L21.3650209,35.9540374 C20.6252074,35.2310162 20.6100695,34.0435898 21.3312094,33.3018463 C21.6183711,33.0064801 21.9946393,32.8142618 22.4017631,32.7549489 L32.4294799,31.294035 C33.0387714,31.2052688 33.5654836,30.8215917 33.837967,30.2680396 L38.3224983,21.1576816 C38.7797281,20.2288157 39.9014214,19.8474462 40.8278704,20.3058689 C41.1967872,20.4884152 41.4953953,20.7878023 41.6774666,21.1576816 L46.1619979,30.2680396 C46.4344813,30.8215917 46.9611935,31.2052688 47.5704849,31.294035 L57.5982017,32.7549489 C58.6205988,32.9038994 59.3289813,33.8556266 59.1804183,34.8806909 C59.1212598,35.2888769 58.9295416,35.6661266 58.634944,35.9540374 L51.3788199,43.0454622 C50.9379325,43.4763424 50.7367463,44.0971451 50.8408257,44.7055577 L52.5537643,54.7188101 C52.7284105,55.7397325 52.0445217,56.7093017 51.0262558,56.8844036 C50.620777,56.9541301 50.2036805,56.8878962 49.8395379,56.6959556 L40.8704753,51.9683391 C40.3255085,51.6810856 39.6744564,51.6810856 39.1294895,51.9683391 Z" id="Shape" fill="#FFFFFF"></path></g><g id="Background-Element-1" transform="translate(543.000000, 52.000000)"><ellipse id="Shape" fill="#01B681" cx="39.8618421" cy="39.8339416" rx="39.8618421" ry="39.8339416"></ellipse><path d="M23.8162988,38.0859215 C21.6168343,36.6044989 18.6320444,37.1853388 17.1495842,39.3832639 C15.6671239,41.581189 16.2483707,44.5638897 18.4478353,46.0453124 L34.1161408,56.5985093 C36.150678,57.9688471 38.8917001,57.5863925 40.4728051,55.7115644 L61.3730836,30.9286234 C63.0823589,28.9018146 62.8237963,25.8740898 60.7955679,24.1660109 C58.7673394,22.4579319 55.7374939,22.7163135 54.0282186,24.7431224 L35.9076823,46.2299261 L23.8162988,38.0859215 Z" id="Shape" fill="#FFFFFF" fill-rule="nonzero"></path></g><g id="Background-Element-3" transform="translate(340.000000, 0.000000)"><path d="M18.432,61.4079076 C7.53432268,56.2309858 -2.91322522e-12,45.1233606 -2.91322522e-12,32.256 C-2.91322522e-12,14.4415031 14.4415031,0 32.256,0 C50.0704969,0 64.512,14.4415031 64.512,32.256 C64.512,45.1233606 56.9776773,56.2309858 46.08,61.4079076 L46.08,78.336 C46.08,85.9707844 39.8907844,92.16 32.256,92.16 C24.6212156,92.16 18.432,85.9707844 18.432,78.336 L18.432,61.4079076 Z" id="Shape" fill="#FFAA0A"></path><path d="M18.432,61.4079076 L46.08,61.4079076 C47.0979713,61.4079076 47.9232,62.2331363 47.9232,63.2511076 L47.9232,65.0943076 C47.9232,66.1122788 47.0979713,66.9375076 46.08,66.9375076 L18.432,66.9375076 C17.4140287,66.9375076 16.5888,66.1122788 16.5888,65.0943076 L16.5888,63.2511076 C16.5888,62.2331363 17.4140287,61.4079076 18.432,61.4079076 Z" id="Shape" fill="#0E143F"></path><path d="M18.432,70.0416 L46.08,70.0416 C47.0979713,70.0416 47.9232,70.8668287 47.9232,71.8848 L47.9232,73.728 C47.9232,74.7459713 47.0979713,75.5712 46.08,75.5712 L18.432,75.5712 C17.4140287,75.5712 16.5888,74.7459713 16.5888,73.728 L16.5888,71.8848 C16.5888,70.8668287 17.4140287,70.0416 18.432,70.0416 Z" id="Shape" fill="#0E143F"></path></g></g><g id="Startup-Element-37" transform="translate(611.000000, 363.000000)"><path d="M57.4495508,674.16365 C56.8717373,681.265384 50.9396146,686.734458 43.8144134,686.734458 C36.4736913,686.734458 30.146285,681.569638 28.6761129,674.377643 L0.567801955,536.873443 C-1.34345872,527.523668 1.63887048,517.844259 8.48071064,511.191408 L122.830762,400 L122.830762,531.467738 L77.6740784,552.053464 C71.0768931,555.060945 66.6239938,561.403307 66.0360302,568.629793 L57.4495508,674.16365 Z" id="Shape" fill="#60C9FF"></path><path d="M317.8817,674.16365 L309.295221,568.629793 C308.707257,561.403307 304.254358,555.060945 297.657173,552.053464 L252.500489,531.467738 L252.500489,400 L366.85054,511.191408 C373.692381,517.844259 376.67471,527.523668 374.763449,536.873443 L346.655138,674.377643 C345.184966,681.569638 338.85756,686.734458 331.516838,686.734458 C324.391636,686.734458 318.459514,681.265384 317.8817,674.16365 Z" id="Shape" fill="#60C9FF"></path><path d="M69.5004888,267.633302 C69.5004888,99.0505365 173.325872,0 189.000489,0 C204.675105,0 308.500489,99.0505365 308.500489,267.633302 C308.500489,380.021812 288.500489,489.810712 248.500489,597 L129.500489,597 C89.5004888,489.810712 69.5004888,380.021812 69.5004888,267.633302 Z" id="Shape" fill="#A1E0FF"></path><path d="M129.500489,597 L248.500489,597 L244.057556,623.657596 C243.736098,625.586348 242.067337,627 240.11198,627 L137.888997,627 C135.933641,627 134.26488,625.586348 133.943421,623.657596 L129.500489,597 Z" id="Shape" fill="#00A7FF"></path><path d="M88.2298187,147.479119 C94.6307049,127.755823 102.25161,109.839589 110.408449,93.8356031 C135.216312,99.5647008 161.413659,102.6195 189.000489,103 C217.475041,103.392744 243.786009,100.561451 267.933392,94.506119 C275.823746,110.067579 283.201796,127.423638 289.444867,146.478555 C259.649749,156.826211 226.168281,162 189.000489,162 C153.050635,162 119.460411,157.159732 88.2298187,147.479195 L88.2298187,147.479119 Z" id="Shape" fill="#60C9FF"></path><path d="M188.500489,431 C193.471052,431 197.500489,435.029437 197.500489,440 L197.500489,678 C197.500489,682.970563 193.471052,687 188.500489,687 C183.529926,687 179.500489,682.970563 179.500489,678 L179.500489,440 C179.500489,435.029437 183.529926,431 188.500489,431 Z" id="Shape" fill="#60C9FF"></path><circle id="Shape" fill="#00A7FF" cx="188.500489" cy="273" r="64"></circle><circle id="Shape" fill="#F2FBFF" cx="188.500489" cy="273" r="52"></circle></g><g id="Man-Standing-1" transform="translate(348.000000, 433.000000)"><g id="Head-Front/-Man/5" transform="translate(77.000000, 0.734458)"><path d="M11.0586355,66.5797014 C7.29345845,66.5854907 3.772759,64.2270616 2.47841471,60.470421 C1.2951409,57.0361459 2.29796793,53.3778949 4.74837127,51.0088975 C4.10588979,46.779045 3.52309936,42.908621 3,39.3976256 C3,24.8186196 15.0883118,13 30,13 C44.9116882,13 57,24.8186196 57,39.3976256 L57,56.2777399 C57,68.04749 51.9256415,77.797052 46.146017,81.4559557 C47.3634348,86.2006903 49.0493152,90.1377721 51.2036583,93.2672012 C55.1703564,99.0292825 55.1024702,105.273549 51,112 L12,112 L15,68.4903368 C14.6767561,68.1875605 11.3626872,66.8838956 11.0586355,66.5797014 Z" id="Shape" fill="#FFB5B9" fill-rule="evenodd"></path><path d="M49,47 C49,46.4477153 48.5522847,46 48,46 C47.4477153,46 47,46.4477153 47,47 L47,54.8015404 C47,55.3032017 47.3716912,55.7272251 47.8690315,55.7929269 C49.726248,56.038277 50.4828322,56.43101 50.4828322,56.6094332 C50.4828322,57.0087595 49.5120509,57.9538233 47.4940744,59.1374229 C47.0176862,59.4168378 46.8580079,60.0295374 47.1374229,60.5059256 C47.4168378,60.9823138 48.0295374,61.1419921 48.5059256,60.8625771 C51.1317253,59.3224723 52.4828322,58.0071582 52.4828322,56.6094332 C52.4828322,55.1676218 51.2408327,54.3654145 49,53.9471743 L49,47 Z" id="Shape" fill="#F97A80" fill-rule="nonzero"></path><path d="M35.0103392,63.1434276 C35.6587312,67.6173799 38.8579685,69.5626375 44.13288,68.8554357 C44.6802672,68.7820481 45.0645197,68.2788107 44.9911321,67.7314236 C44.9177445,67.1840364 44.4145071,66.7997839 43.86712,66.8731715 C39.6007056,67.4451651 37.4666096,66.1475537 36.9896608,62.8565724 C36.9104479,62.3099978 36.403147,61.9311263 35.8565724,62.0103392 C35.3099978,62.0895521 34.9311263,62.596853 35.0103392,63.1434276 Z" id="Shape" fill="#F97A80" fill-rule="nonzero"></path><path d="M32.9346905,42.9774268 C30.4612096,44.0911216 28.2614396,44.3324831 28.0213667,43.5165227 C27.7812938,42.7005624 29.5918287,41.1362679 32.0653095,40.0225732 C34.5387904,38.9088784 36.7385604,38.6675169 36.9786333,39.4834773 C37.2187062,40.2994376 35.4081713,41.8637321 32.9346905,42.9774268 Z M52.6927676,43.5120356 C49.9366533,42.7890653 47.8399339,41.5260207 48.0096137,40.6909465 C48.1792934,39.8558723 50.5511181,39.7649941 53.3072324,40.4879644 C56.0633467,41.2109347 58.1600661,42.4739793 57.9903863,43.3090535 C57.8207066,44.1441277 55.4488819,44.2350059 52.6927676,43.5120356 Z M37.5,51 C36.6715729,51 36,50.3284271 36,49.5 C36,48.6715729 36.6715729,48 37.5,48 C38.3284271,48 39,48.6715729 39,49.5 C39,50.3284271 38.3284271,51 37.5,51 Z M53.5,51 C52.6715729,51 52,50.3284271 52,49.5 C52,48.6715729 52.6715729,48 53.5,48 C54.3284271,48 55,48.6715729 55,49.5 C55,50.3284271 54.3284271,51 53.5,51 Z M8.48808872,50.3486536 C8.00911598,50.0481112 6.20403157,49.7185296 4.34386644,51.4803591 C1.76525712,43.6646268 0.810462934,37.4993694 1.024637,33.0812785 C1.35016191,26.366186 3.56594669,22.1425949 7.67199135,20.4105051 C8.54612101,13.9435853 12.3272144,10.4439508 19.0152717,9.91160155 C29.0473575,9.11307766 52.4255641,5.99950794 59.8523974,10.4271667 C67.2792308,14.8548255 71.0569032,30.6472228 56.9578708,35.5500602 C49.5596185,38.1227494 39.5047546,36.5948976 26.7932791,30.9665047 C26.9321286,36.5655127 26.0446044,40.1495052 24.1307065,41.7184822 C22.2168086,43.2874592 20.4181557,44.3851486 18.7347476,45.0115504 C18.7059149,51.0584709 17.9010657,54.2432546 16.3201999,54.5659016 C13.9489011,55.049872 12.1006565,51.1832362 8.48808872,50.3486536 Z" id="Shape" fill="#732213" fill-rule="evenodd"></path><path d="M14.0150927,56.8124811 C10.7245023,53.6358286 7.792841,54.037351 6.15721998,58.0053039 C5.94674426,58.5159099 6.19004786,59.100462 6.70065378,59.3109378 C7.21125971,59.5214135 7.79581189,59.2781099 8.00628762,58.767504 C9.07451646,56.1760223 10.3020535,56.007898 12.6260099,58.2513865 C13.0233527,58.6349712 13.6564194,58.623818 14.040004,58.2264752 C14.4235887,57.8291325 14.4124355,57.1960657 14.0150927,56.8124811 Z" id="Shape" fill="#F97A80" fill-rule="nonzero"></path><path d="M44.5696202,81.0715194 C41.9945757,83.006267 39.7693829,83.7374982 37.8803748,83.3523831 C35.7997497,82.9282028 30.8945369,80.7147717 23.3052144,76.7501833 C22.8156979,76.4944646 22.2115654,76.6839952 21.9558467,77.1735117 C21.7001281,77.6630282 21.8896587,78.2671607 22.3791752,78.5228794 C30.1549968,82.5848931 35.1420625,84.8352595 37.48085,85.3120718 C40.0112545,85.8279495 42.7791924,84.9183642 45.7709965,82.6704863 C46.212539,82.3387354 46.3015427,81.7118572 45.9697918,81.2703147 C45.6380409,80.8287722 45.0111627,80.7397685 44.5696202,81.0715194 Z" id="Shape" fill="#F97A80" fill-rule="nonzero"></path></g><g id="Front-Bottom/-Standing/-Long-Pants-2" transform="translate(42.000000, 255.504086)"><path d="M9.39071247,303.400708 L30.0048833,307.407696 L17.4778867,349.744017 L0.995116676,346.592304 L9.39071247,303.400708 Z M136.39714,308.443613 L157.240609,305.884357 L158.40937,350.019645 L141.759391,352.115643 L136.39714,308.443613 Z" id="Shape" fill="#FFB5B9" fill-rule="evenodd"></path><path d="M0.883527163,343.363424 C2.65058149,341.622528 10.9257985,346.701036 14.3723408,346.710867 C16.6700357,346.717422 18.1666205,345.618702 18.8620953,343.414709 C33.1638499,349.264615 41.6183036,352.970853 44.2254563,354.533421 C46.8326091,356.09599 47.6023663,357.918183 46.534728,360 L0.883527163,360 C-0.294509054,350.069546 -0.294509054,344.524021 0.883527163,343.363424 Z M139.883527,343.593795 C141.650581,341.852899 149.925798,346.931407 153.372341,346.941239 C155.670036,346.947793 157.166621,345.849073 157.862095,343.64508 C172.16385,349.494986 180.618304,353.201224 183.225456,354.763793 C185.832609,356.326361 186.602366,358.148554 185.534728,360.230371 L139.883527,360.230371 C138.705491,350.299918 138.705491,344.754392 139.883527,343.593795 Z" id="Shape" fill="#021768" fill-rule="evenodd"></path><path d="M82.7624275,117.316738 L41.8737973,326.123628 L1.39814441,323.310402 L18.8857197,175.014156 L31.8512822,5.23037118 L50.2851821,6.15833625 L126.602303,0 L164.974651,184.675887 L170.389214,320.103478 L134.343823,325.377773 C128.421022,265.254207 123.739354,222.482704 120.298821,197.063266 C108.548975,174.004194 96.0368442,147.422018 82.7624275,117.316738 Z" id="Shape" fill="#134DBD" fill-rule="evenodd"></path><path d="M122.360826,24.5528153 C122.686211,24.1065615 122.588229,23.481024 122.141975,23.1556381 C121.695721,22.8302521 121.070183,22.9282349 120.744798,23.3744887 L88.1096849,68.1322435 C88.0127274,68.2652168 87.9500858,68.4200636 87.9273165,68.5830489 L81.2530813,116.357996 C81.1766683,116.904969 81.5581326,117.410323 82.1051056,117.486736 C82.6520787,117.563149 83.1574329,117.181685 83.2338459,116.634712 L89.8733988,69.1080247 L122.360826,24.5528153 Z" id="Shape" fill="#0E143F" fill-rule="nonzero"></path></g><g id="Front-body/-Man/-Pose1/-Jacket" transform="translate(0.000000, 82.331875)"><path d="M90.6528537,11.4141905 C98.9728376,19.1694683 109.859471,22.3430712 118.825954,21.9189519 C127.792438,21.4948327 125.990321,17.8919564 125.463761,10.8649605 C142.358147,16.0531372 152.767374,20.1441253 156.69144,23.1379248 C187.605807,46.7235101 168.753627,99.3083916 172.549857,125.833287 C176.346087,152.358183 185.393423,163.89221 179.022526,179.168976 C173.977354,191.266787 88.29988,197.824951 72.7493451,186.540527 C66.8139877,182.233467 79.4054489,142.356058 76.1140528,126.427243 C72.8226567,110.498429 53.6494258,85.9305836 50.4601203,60.6457432 C48.3112867,43.609773 43.2375014,33.460322 56.4824171,24.949353 C59.6916047,22.8871809 71.0817503,18.37546 90.6528537,11.4141905 Z" id="Shape" fill="#F2FBFF" fill-rule="evenodd"></path><path d="M125.463761,10.8649605 C124.404411,3.96603931 124.241165,2.98413298 128.503549,7.37773478 C132.765934,11.7713366 142.298754,16.3751887 146.430455,18.0176016 C147.694863,18.3669956 149.296549,19.0579879 151.17178,20.0370914 C153.634993,21.1761596 155.47488,22.2097708 156.69144,23.1379248 C156.923441,23.3149257 157.152639,23.4935599 157.379065,23.6738041 C177.040714,36.1513388 211.523812,65.1720709 223.412539,79.3350159 C238.418221,69.4476279 247.95523,66.1940933 278.510553,38.6867363 C282.180287,35.3830674 291.634083,41.1569267 296.088809,50.4668561 C258.057178,98.6546468 230.727958,123.83516 220.390371,122.728967 C213.208706,121.96048 192.144429,106.173183 173.629336,92.5649092 C172.541903,105.194787 175.421121,118.056932 176.689747,126.921036 C180.485977,153.445932 200.063956,176.328871 193.693058,191.605636 C191.485129,196.900028 188.526467,196.049105 168.068888,198.190383 C159.331843,199.104882 160.409199,161.454828 154.533744,121.821488 C146.811296,69.7291184 125.762802,14.8556941 125.463761,10.8649605 Z M69.7571569,200.760857 C65.1359926,196.857144 65.6658412,195.286561 65.4552345,193.559135 C47.8560441,181.400536 1.58802551,140.844035 0.0557701953,128.774371 C-1.75315969,114.525325 40.9340395,28.6718447 56.6415835,24.7093905 C56.7718561,24.6765274 56.9016296,24.6461839 57.030904,24.6183601 C59.253433,23.3463049 70.2759014,19.2675919 77.3054712,14.9030392 C78.0755462,14.4249114 84.9563866,8.77273392 85.382067,7.65016911 C86.2053101,5.47918877 87.0037342,5.13572674 90.0977303,5.73056547 C94.6864252,10.0078098 115.474974,69.2086058 129.214402,116.705214 C140.386594,155.326995 146.1123,197.819444 137.207708,201.670168 C118.274831,209.85755 74.3783212,204.66457 69.7571569,200.760857 Z M76.1140528,126.427243 C74.2251114,117.285653 67.1052593,105.298673 60.7778623,91.963752 C51.3271551,104.66591 50.226765,118.266684 42.4498079,123.593208 C54.8996184,135.839278 50.5065963,142.199969 72.2124952,168.837031 C74.2128798,154.803472 78.1235179,136.152113 76.1140528,126.427243 Z" id="Shape" fill="#FFAA0A" fill-rule="evenodd"></path><path d="M284.611303,32.5808183 C284.309458,22.936244 284.725846,17.4242074 285.860467,16.0447084 C286.995088,14.6652095 288.119687,17.7133094 289.234263,25.1890082 C298.548164,16.5501024 303.76908,12.5358947 304.897009,13.1463853 C307.145539,14.3633997 299.948659,21.5176506 299.503361,23.2108099 C300.856509,22.82467 310.342899,15.3522839 311.788865,16.7524472 C312.752842,17.6858894 309.597912,21.3551103 302.324076,27.7601097 C309.63305,23.4004896 313.545831,21.785207 314.062422,22.9142619 C314.837307,24.6078442 307.875643,29.4263404 305.080918,31.8502801 C304.058461,32.737084 312.906371,28.4932579 313.375549,29.7898955 C313.844728,31.0865331 310.968256,32.7673091 305.555425,36.5799683 C301.94687,39.121741 297.576317,40.7768891 292.443766,41.5454124 L289.439714,46.1697155 L280.940197,37.7200767 L284.611303,32.5808183 Z M90.4082223,187.205722 C99.7364962,185.879868 105.129021,185.724669 106.585795,186.740125 C108.04257,187.755581 105.201495,189.227668 98.0625699,191.156387 C107.415138,199.77523 111.853859,204.693877 111.378732,205.912329 C110.431567,208.341315 102.740015,201.732012 101.05055,201.454934 C101.566042,202.798731 109.804492,211.71707 108.596103,213.3442 C107.79051,214.428954 103.901494,211.587806 96.9290555,204.820756 C101.920191,211.839441 103.894775,215.672595 102.85281,216.320219 C101.289862,217.291654 95.8895339,210.676716 93.246483,208.072809 C92.2795169,207.120163 97.3183626,215.725669 96.108833,216.342453 C94.8993034,216.959237 92.9689595,214.193321 88.7058698,209.057056 C85.86381,205.632879 83.8029188,201.335546 82.5231963,196.165057 L75.6428006,192.458305 L86.2173465,185.101246 L90.4082223,187.205722 Z" id="Shape" fill="#FFB5B9" fill-rule="evenodd"></path><path d="M171.417066,80.2096992 C171.628596,86.0945247 171.36848,92.212094 170.636214,98.5626077 C170.570799,99.129915 170.962333,99.6446664 171.51073,99.7123373 C172.059127,99.7800081 172.55672,99.3749728 172.622136,98.8076655 C173.366476,92.3524349 173.631161,86.1274192 173.415685,80.132819 C173.395163,79.5618845 172.93112,79.1162609 172.379217,79.1374908 C171.827314,79.1587207 171.396544,79.6387647 171.417066,80.2096992 Z" id="Shape" fill="#0E143F" fill-rule="nonzero"></path><path d="M86.6835525,182.921541 C85.9669874,182.082732 81.7032997,177.319286 73.8545044,168.588359 C73.4783994,168.169984 72.845651,168.14623 72.4412211,168.535304 C72.0367913,168.924378 72.0138295,169.578946 72.3899345,169.997321 C80.2086433,178.69478 84.4862918,183.473823 85.1848951,184.291606 C85.5506172,184.719719 86.1825793,184.760074 86.5964221,184.381741 C87.0102649,184.003408 87.0492745,183.349654 86.6835525,182.921541 Z" id="Shape" fill="#0E143F" fill-rule="nonzero"></path></g></g></g></svg> 